<svg xmlns="http://www.w3.org/2000/svg" xmlns:xlink="http://www.w3.org/1999/xlink" width="1920" zoomAndPan="magnify" viewBox="0 0 1440 809.999993" height="1080" preserveAspectRatio="xMidYMid meet" version="1.0"><defs><clipPath id="id1"><path d="M 363.304688 7.816406 L 1157.554688 7.816406 L 1157.554688 802.066406 L 363.304688 802.066406 Z M 363.304688 7.816406 " clip-rule="nonzero"/></clipPath></defs><g clip-path="url(#id1)"><path fill="rgb(28.62854%, 32.548523%, 30.979919%)" d="M 1098.730469 7.839844 L 421.929688 7.839844 C 389.613281 7.839844 363.304688 33.480469 363.304688 65.050781 L 363.304688 744.730469 C 363.304688 776.375 389.613281 802.066406 421.929688 802.066406 L 1098.78125 802.066406 C 1131.171875 802.066406 1157.554688 776.375 1157.554688 744.730469 L 1157.554688 65.050781 C 1157.554688 33.480469 1131.171875 7.839844 1098.730469 7.839844 Z M 1098.730469 7.839844 " fill-opacity="1" fill-rule="nonzero"/></g><path fill="rgb(90.19928%, 96.078491%, 89.7995%)" d="M 481.078125 305.585938 L 599.097656 305.585938 L 599.097656 684.589844 L 481.078125 684.589844 Z M 540 116.949219 C 577.652344 116.949219 608.257812 147.554688 608.257812 185.207031 C 608.257812 222.859375 577.652344 253.535156 540.027344 253.535156 C 538.90625 253.535156 537.789062 253.503906 536.675781 253.445312 C 535.558594 253.390625 534.445312 253.304688 533.332031 253.195312 C 532.21875 253.082031 531.109375 252.941406 530.003906 252.777344 C 528.898438 252.613281 527.800781 252.417969 526.703125 252.199219 C 525.609375 251.980469 524.519531 251.734375 523.433594 251.460938 C 522.351562 251.1875 521.273438 250.886719 520.203125 250.5625 C 519.136719 250.234375 518.074219 249.882812 517.023438 249.503906 C 515.96875 249.128906 514.929688 248.722656 513.894531 248.296875 C 512.863281 247.867188 511.84375 247.414062 510.832031 246.933594 C 509.824219 246.457031 508.824219 245.953125 507.839844 245.425781 C 506.855469 244.898438 505.882812 244.347656 504.921875 243.769531 C 503.964844 243.195312 503.023438 242.597656 502.09375 241.976562 C 501.164062 241.355469 500.25 240.710938 499.351562 240.042969 C 498.453125 239.378906 497.574219 238.691406 496.710938 237.980469 C 495.847656 237.273438 495 236.542969 494.171875 235.792969 C 493.34375 235.042969 492.535156 234.269531 491.742188 233.480469 C 490.953125 232.691406 490.183594 231.882812 489.429688 231.054688 C 488.679688 230.226562 487.949219 229.378906 487.242188 228.515625 C 486.53125 227.652344 485.84375 226.773438 485.175781 225.875 C 484.511719 224.976562 483.867188 224.0625 483.246094 223.136719 C 482.621094 222.207031 482.023438 221.261719 481.449219 220.304688 C 480.875 219.347656 480.320312 218.375 479.792969 217.390625 C 479.265625 216.402344 478.761719 215.40625 478.28125 214.398438 C 477.804688 213.386719 477.351562 212.367188 476.921875 211.332031 C 476.492188 210.300781 476.085938 209.257812 475.710938 208.207031 C 475.332031 207.15625 474.980469 206.09375 474.652344 205.027344 C 474.328125 203.957031 474.027344 202.878906 473.753906 201.796875 C 473.480469 200.714844 473.234375 199.625 473.011719 198.527344 C 472.792969 197.429688 472.597656 196.332031 472.433594 195.226562 C 472.265625 194.121094 472.128906 193.011719 472.015625 191.898438 C 471.902344 190.789062 471.820312 189.671875 471.761719 188.558594 C 471.703125 187.441406 471.671875 186.324219 471.671875 185.207031 C 471.671875 184.089844 471.699219 182.972656 471.753906 181.855469 C 471.808594 180.738281 471.890625 179.625 472 178.511719 C 472.109375 177.398438 472.246094 176.289062 472.410156 175.183594 C 472.574219 174.078125 472.765625 172.976562 472.984375 171.878906 C 473.203125 170.785156 473.445312 169.695312 473.71875 168.609375 C 473.992188 167.527344 474.289062 166.449219 474.613281 165.378906 C 474.9375 164.308594 475.289062 163.25 475.664062 162.195312 C 476.042969 161.144531 476.445312 160.101562 476.875 159.066406 C 477.300781 158.035156 477.753906 157.015625 478.234375 156.003906 C 478.710938 154.992188 479.214844 153.996094 479.742188 153.007812 C 480.269531 152.023438 480.820312 151.050781 481.394531 150.09375 C 481.96875 149.136719 482.566406 148.191406 483.1875 147.261719 C 483.8125 146.332031 484.453125 145.417969 485.121094 144.523438 C 485.789062 143.625 486.476562 142.742188 487.183594 141.878906 C 487.894531 141.015625 488.625 140.171875 489.375 139.34375 C 490.125 138.515625 490.898438 137.707031 491.6875 136.914062 C 492.480469 136.125 493.289062 135.355469 494.117188 134.605469 C 494.945312 133.855469 495.792969 133.125 496.65625 132.417969 C 497.523438 131.707031 498.402344 131.019531 499.300781 130.355469 C 500.199219 129.691406 501.113281 129.046875 502.042969 128.425781 C 502.972656 127.808594 503.917969 127.210938 504.878906 126.636719 C 505.835938 126.0625 506.808594 125.511719 507.796875 124.984375 C 508.78125 124.460938 509.78125 123.957031 510.792969 123.480469 C 511.800781 123.003906 512.824219 122.550781 513.859375 122.125 C 514.890625 121.699219 515.933594 121.296875 516.988281 120.921875 C 518.039062 120.542969 519.101562 120.195312 520.171875 119.871094 C 521.242188 119.546875 522.316406 119.25 523.402344 118.980469 C 524.488281 118.710938 525.578125 118.464844 526.675781 118.25 C 527.769531 118.03125 528.871094 117.84375 529.976562 117.679688 C 531.082031 117.515625 532.191406 117.378906 533.304688 117.273438 C 534.417969 117.164062 535.53125 117.082031 536.648438 117.027344 C 537.765625 116.976562 538.882812 116.949219 540 116.949219 M 672.789062 305.585938 L 785.773438 305.585938 L 785.773438 357.382812 L 787.335938 357.382812 C 803.070312 327.601562 841.492188 296.175781 899.027344 296.175781 C 1018.3125 296.175781 1040.328125 374.683594 1040.328125 476.71875 L 1040.328125 684.617188 L 922.605469 684.617188 L 922.605469 500.25 C 922.605469 456.316406 921.8125 399.726562 861.398438 399.726562 C 800.09375 399.726562 790.660156 447.632812 790.660156 497.023438 L 790.660156 684.515625 L 672.964844 684.515625 L 672.964844 305.511719 Z M 672.789062 305.585938 " fill-opacity="1" fill-rule="nonzero"/></svg>