<svg xmlns="http://www.w3.org/2000/svg" xmlns:xlink="http://www.w3.org/1999/xlink" width="500" zoomAndPan="magnify" viewBox="0 0 375 374.999991" height="500" preserveAspectRatio="xMidYMid meet" version="1.0"><path fill="rgb(90.19928%, 96.078491%, 89.7995%)" d="M 374.039062 90.382812 C 374.039062 66.152344 364.421875 42.921875 347.289062 25.789062 C 330.152344 8.652344 306.921875 -0.960938 282.691406 -0.960938 L 90.382812 -0.960938 C 66.152344 -0.960938 42.921875 8.652344 25.789062 25.789062 C 8.652344 42.921875 -0.960938 66.152344 -0.960938 90.382812 L -0.960938 282.691406 C -0.960938 306.921875 8.652344 330.152344 25.789062 347.289062 C 42.921875 364.421875 66.152344 374.039062 90.382812 374.039062 L 282.691406 374.039062 C 306.921875 374.039062 330.152344 364.421875 347.289062 347.289062 C 364.421875 330.152344 374.039062 306.921875 374.039062 282.691406 Z M 109.617188 277.882812 L 263.460938 277.882812 C 271.421875 277.882812 277.882812 271.421875 277.882812 263.460938 C 277.882812 255.5 271.421875 249.039062 263.460938 249.039062 L 109.617188 249.039062 C 101.652344 249.039062 95.191406 255.5 95.191406 263.460938 C 95.191406 271.421875 101.652344 277.882812 109.617188 277.882812 Z M 109.617188 200.960938 L 263.460938 200.960938 C 271.421875 200.960938 277.882812 194.5 277.882812 186.539062 C 277.882812 178.578125 271.421875 172.117188 263.460938 172.117188 L 109.617188 172.117188 C 101.652344 172.117188 95.191406 178.578125 95.191406 186.539062 C 95.191406 194.5 101.652344 200.960938 109.617188 200.960938 Z M 109.617188 124.039062 L 263.460938 124.039062 C 271.421875 124.039062 277.882812 117.578125 277.882812 109.617188 C 277.882812 101.652344 271.421875 95.191406 263.460938 95.191406 L 109.617188 95.191406 C 101.652344 95.191406 95.191406 101.652344 95.191406 109.617188 C 95.191406 117.578125 101.652344 124.039062 109.617188 124.039062 Z M 109.617188 124.039062 " fill-opacity="1" fill-rule="evenodd"/></svg>